<svg width="462" height="77" viewBox="0 0 462 77" fill="none" xmlns="http://www.w3.org/2000/svg">
<path d="M14.2812 16.875V25.1875H20.0625V31.8125H14.2812V48.6875C14.2812 49.9375 14.5208 50.8333 15 51.375C15.4792 51.9167 16.3958 52.1875 17.75 52.1875C18.75 52.1875 19.6354 52.1146 20.4062 51.9688V58.8125C18.6354 59.3542 16.8125 59.625 14.9375 59.625C8.60417 59.625 5.375 56.4271 5.25 50.0312V31.8125H0.3125V25.1875H5.25V16.875H14.2812ZM31.9862 28.875C34.3821 26 37.3925 24.5625 41.0175 24.5625C48.3508 24.5625 52.0696 28.8229 52.1737 37.3438V59H43.1425V37.5938C43.1425 35.6562 42.7258 34.2292 41.8925 33.3125C41.0592 32.375 39.6737 31.9062 37.7362 31.9062C35.0904 31.9062 33.1737 32.9271 31.9862 34.9688V59H22.955V11H31.9862V28.875ZM66.5975 59H57.535V25.1875H66.5975V59ZM57.0037 16.4375C57.0037 15.0833 57.4517 13.9688 58.3475 13.0938C59.2642 12.2188 60.5037 11.7812 62.0662 11.7812C63.6079 11.7812 64.8371 12.2188 65.7537 13.0938C66.6704 13.9688 67.1287 15.0833 67.1287 16.4375C67.1287 17.8125 66.66 18.9375 65.7225 19.8125C64.8058 20.6875 63.5871 21.125 62.0662 21.125C60.5454 21.125 59.3162 20.6875 58.3787 19.8125C57.4621 18.9375 57.0037 17.8125 57.0037 16.4375ZM90.4587 49.6562C90.4587 48.5521 89.9067 47.6875 88.8025 47.0625C87.7192 46.4167 85.9692 45.8438 83.5525 45.3438C75.5108 43.6562 71.49 40.2396 71.49 35.0938C71.49 32.0938 72.7296 29.5938 75.2087 27.5938C77.7087 25.5729 80.9692 24.5625 84.99 24.5625C89.2817 24.5625 92.7087 25.5729 95.2712 27.5938C97.8546 29.6146 99.1462 32.2396 99.1462 35.4688H90.115C90.115 34.1771 89.6983 33.1146 88.865 32.2812C88.0317 31.4271 86.7296 31 84.9587 31C83.4379 31 82.2608 31.3438 81.4275 32.0312C80.5942 32.7188 80.1775 33.5938 80.1775 34.6562C80.1775 35.6562 80.6462 36.4688 81.5837 37.0938C82.5421 37.6979 84.1462 38.2292 86.3962 38.6875C88.6462 39.125 90.5421 39.625 92.0837 40.1875C96.8546 41.9375 99.24 44.9688 99.24 49.2812C99.24 52.3646 97.9171 54.8646 95.2712 56.7812C92.6254 58.6771 89.2087 59.625 85.0212 59.625C82.1879 59.625 79.6671 59.125 77.4587 58.125C75.2712 57.1042 73.5525 55.7188 72.3025 53.9688C71.0525 52.1979 70.4275 50.2917 70.4275 48.25H78.99C79.0733 49.8542 79.6671 51.0833 80.7712 51.9375C81.8754 52.7917 83.3546 53.2188 85.2087 53.2188C86.9379 53.2188 88.24 52.8958 89.115 52.25C90.0108 51.5833 90.4587 50.7188 90.4587 49.6562ZM112.695 59H103.632V25.1875H112.695V59ZM103.101 16.4375C103.101 15.0833 103.549 13.9688 104.445 13.0938C105.362 12.2188 106.601 11.7812 108.164 11.7812C109.705 11.7812 110.935 12.2188 111.851 13.0938C112.768 13.9688 113.226 15.0833 113.226 16.4375C113.226 17.8125 112.757 18.9375 111.82 19.8125C110.903 20.6875 109.685 21.125 108.164 21.125C106.643 21.125 105.414 20.6875 104.476 19.8125C103.56 18.9375 103.101 17.8125 103.101 16.4375ZM136.556 49.6562C136.556 48.5521 136.004 47.6875 134.9 47.0625C133.817 46.4167 132.067 45.8438 129.65 45.3438C121.608 43.6562 117.588 40.2396 117.588 35.0938C117.588 32.0938 118.827 29.5938 121.306 27.5938C123.806 25.5729 127.067 24.5625 131.088 24.5625C135.379 24.5625 138.806 25.5729 141.369 27.5938C143.952 29.6146 145.244 32.2396 145.244 35.4688H136.213C136.213 34.1771 135.796 33.1146 134.963 32.2812C134.129 31.4271 132.827 31 131.056 31C129.535 31 128.358 31.3438 127.525 32.0312C126.692 32.7188 126.275 33.5938 126.275 34.6562C126.275 35.6562 126.744 36.4688 127.681 37.0938C128.64 37.6979 130.244 38.2292 132.494 38.6875C134.744 39.125 136.64 39.625 138.181 40.1875C142.952 41.9375 145.338 44.9688 145.338 49.2812C145.338 52.3646 144.015 54.8646 141.369 56.7812C138.723 58.6771 135.306 59.625 131.119 59.625C128.285 59.625 125.765 59.125 123.556 58.125C121.369 57.1042 119.65 55.7188 118.4 53.9688C117.15 52.1979 116.525 50.2917 116.525 48.25H125.088C125.171 49.8542 125.765 51.0833 126.869 51.9375C127.973 52.7917 129.452 53.2188 131.306 53.2188C133.035 53.2188 134.338 52.8958 135.213 52.25C136.108 51.5833 136.556 50.7188 136.556 49.6562ZM157.574 25.1875L157.855 29.0938C160.272 26.0729 163.511 24.5625 167.574 24.5625C171.157 24.5625 173.824 25.6146 175.574 27.7188C177.324 29.8229 178.22 32.9688 178.261 37.1562V59H169.23V37.375C169.23 35.4583 168.813 34.0729 167.98 33.2188C167.147 32.3438 165.761 31.9062 163.824 31.9062C161.282 31.9062 159.376 32.9896 158.105 35.1562V59H149.074V25.1875H157.574ZM198.779 59.625C193.82 59.625 189.779 58.1042 186.654 55.0625C183.55 52.0208 181.997 47.9688 181.997 42.9062V42.0312C181.997 38.6354 182.654 35.6042 183.966 32.9375C185.279 30.25 187.133 28.1875 189.529 26.75C191.945 25.2917 194.695 24.5625 197.779 24.5625C202.404 24.5625 206.039 26.0208 208.685 28.9375C211.352 31.8542 212.685 35.9896 212.685 41.3438V45.0312H191.154C191.445 47.2396 192.32 49.0104 193.779 50.3438C195.258 51.6771 197.122 52.3438 199.372 52.3438C202.852 52.3438 205.57 51.0833 207.529 48.5625L211.966 53.5312C210.612 55.4479 208.779 56.9479 206.466 58.0312C204.154 59.0938 201.591 59.625 198.779 59.625ZM197.747 31.875C195.956 31.875 194.497 32.4792 193.372 33.6875C192.268 34.8958 191.56 36.625 191.247 38.875H203.81V38.1562C203.768 36.1562 203.227 34.6146 202.185 33.5312C201.143 32.4271 199.664 31.875 197.747 31.875ZM228.14 47.9688L234.421 25.1875H243.859L232.452 59H223.827L212.421 25.1875H221.859L228.14 47.9688ZM261.064 59.625C256.105 59.625 252.064 58.1042 248.939 55.0625C245.835 52.0208 244.283 47.9688 244.283 42.9062V42.0312C244.283 38.6354 244.939 35.6042 246.251 32.9375C247.564 30.25 249.418 28.1875 251.814 26.75C254.23 25.2917 256.98 24.5625 260.064 24.5625C264.689 24.5625 268.324 26.0208 270.97 28.9375C273.637 31.8542 274.97 35.9896 274.97 41.3438V45.0312H253.439C253.73 47.2396 254.605 49.0104 256.064 50.3438C257.543 51.6771 259.408 52.3438 261.658 52.3438C265.137 52.3438 267.855 51.0833 269.814 48.5625L274.251 53.5312C272.897 55.4479 271.064 56.9479 268.751 58.0312C266.439 59.0938 263.876 59.625 261.064 59.625ZM260.033 31.875C258.241 31.875 256.783 32.4792 255.658 33.6875C254.553 34.8958 253.845 36.625 253.533 38.875H266.095V38.1562C266.053 36.1562 265.512 34.6146 264.47 33.5312C263.428 32.4271 261.949 31.875 260.033 31.875ZM297.206 33.6562C295.977 33.4896 294.894 33.4062 293.956 33.4062C290.54 33.4062 288.3 34.5625 287.237 36.875V59H278.206V25.1875H286.737L286.987 29.2188C288.8 26.1146 291.31 24.5625 294.519 24.5625C295.519 24.5625 296.456 24.6979 297.331 24.9688L297.206 33.6562ZM313.099 52.3438C314.765 52.3438 316.12 51.8854 317.161 50.9688C318.203 50.0521 318.745 48.8333 318.786 47.3125H327.255C327.234 49.6042 326.609 51.7083 325.38 53.625C324.151 55.5208 322.463 57 320.318 58.0625C318.193 59.1042 315.838 59.625 313.255 59.625C308.422 59.625 304.609 58.0938 301.818 55.0312C299.026 51.9479 297.63 47.6979 297.63 42.2812V41.6875C297.63 36.4792 299.015 32.3229 301.786 29.2188C304.557 26.1146 308.359 24.5625 313.193 24.5625C317.422 24.5625 320.807 25.7708 323.349 28.1875C325.911 30.5833 327.213 33.7812 327.255 37.7812H318.786C318.745 36.0312 318.203 34.6146 317.161 33.5312C316.12 32.4271 314.745 31.875 313.036 31.875C310.932 31.875 309.338 32.6458 308.255 34.1875C307.193 35.7083 306.661 38.1875 306.661 41.625V42.5625C306.661 46.0417 307.193 48.5417 308.255 50.0625C309.318 51.5833 310.932 52.3438 313.099 52.3438ZM329.085 41.7812C329.085 38.4271 329.731 35.4375 331.022 32.8125C332.314 30.1875 334.168 28.1562 336.585 26.7188C339.022 25.2812 341.845 24.5625 345.054 24.5625C349.616 24.5625 353.335 25.9583 356.21 28.75C359.106 31.5417 360.72 35.3333 361.054 40.125L361.116 42.4375C361.116 47.625 359.668 51.7917 356.772 54.9375C353.877 58.0625 349.991 59.625 345.116 59.625C340.241 59.625 336.345 58.0625 333.429 54.9375C330.533 51.8125 329.085 47.5625 329.085 42.1875V41.7812ZM338.116 42.4375C338.116 45.6458 338.72 48.1042 339.929 49.8125C341.137 51.5 342.866 52.3438 345.116 52.3438C347.304 52.3438 349.012 51.5104 350.241 49.8438C351.47 48.1562 352.085 45.4688 352.085 41.7812C352.085 38.6354 351.47 36.1979 350.241 34.4688C349.012 32.7396 347.283 31.875 345.054 31.875C342.845 31.875 341.137 32.7396 339.929 34.4688C338.72 36.1771 338.116 38.8333 338.116 42.4375ZM363.353 41.8438C363.353 36.5729 364.53 32.375 366.884 29.25C369.259 26.125 372.498 24.5625 376.603 24.5625C379.894 24.5625 382.613 25.7917 384.759 28.25V11H393.821V59H385.665L385.228 55.4062C382.978 58.2188 380.082 59.625 376.54 59.625C372.561 59.625 369.363 58.0625 366.946 54.9375C364.55 51.7917 363.353 47.4271 363.353 41.8438ZM372.384 42.5C372.384 45.6667 372.936 48.0938 374.04 49.7812C375.144 51.4688 376.748 52.3125 378.853 52.3125C381.644 52.3125 383.613 51.1354 384.759 48.7812V35.4375C383.634 33.0833 381.686 31.9062 378.915 31.9062C374.561 31.9062 372.384 35.4375 372.384 42.5ZM414.464 59.625C409.505 59.625 405.464 58.1042 402.339 55.0625C399.235 52.0208 397.682 47.9688 397.682 42.9062V42.0312C397.682 38.6354 398.339 35.6042 399.651 32.9375C400.964 30.25 402.818 28.1875 405.214 26.75C407.63 25.2917 410.38 24.5625 413.464 24.5625C418.089 24.5625 421.724 26.0208 424.37 28.9375C427.037 31.8542 428.37 35.9896 428.37 41.3438V45.0312H406.839C407.13 47.2396 408.005 49.0104 409.464 50.3438C410.943 51.6771 412.807 52.3438 415.057 52.3438C418.537 52.3438 421.255 51.0833 423.214 48.5625L427.651 53.5312C426.297 55.4479 424.464 56.9479 422.151 58.0312C419.839 59.0938 417.276 59.625 414.464 59.625ZM413.432 31.875C411.641 31.875 410.182 32.4792 409.057 33.6875C407.953 34.8958 407.245 36.625 406.932 38.875H419.495V38.1562C419.453 36.1562 418.912 34.6146 417.87 33.5312C416.828 32.4271 415.349 31.875 413.432 31.875ZM429.649 46.1855C429.649 43.8184 430.194 41.6211 431.284 39.5938C432.386 37.5664 433.903 35.9727 435.837 34.8125C437.782 33.6406 439.88 33.0547 442.13 33.0547C444.38 33.0547 446.471 33.6406 448.405 34.8125C450.35 35.9727 451.868 37.5664 452.958 39.5938C454.059 41.6211 454.61 43.8184 454.61 46.1855C454.61 48.5762 454.054 50.791 452.94 52.8301C451.827 54.8574 450.304 56.4512 448.37 57.6113C446.448 58.7715 444.368 59.3516 442.13 59.3516C439.868 59.3516 437.77 58.7656 435.837 57.5938C433.915 56.4219 432.403 54.8223 431.302 52.7949C430.2 50.7676 429.649 48.5645 429.649 46.1855ZM452.448 46.1855C452.448 44.2402 452.009 42.4355 451.13 40.7715C450.251 39.0957 449.009 37.7598 447.403 36.7637C445.798 35.7559 444.04 35.252 442.13 35.252C440.266 35.252 438.532 35.7324 436.927 36.6934C435.333 37.6543 434.079 38.9785 433.165 40.666C432.251 42.3535 431.794 44.1934 431.794 46.1855C431.794 48.1777 432.245 50.0176 433.147 51.7051C434.061 53.3926 435.315 54.7285 436.909 55.7129C438.514 56.6855 440.255 57.1719 442.13 57.1719C444.005 57.1719 445.745 56.6738 447.35 55.6777C448.968 54.6816 450.221 53.3398 451.112 51.6523C452.003 49.9648 452.448 48.1426 452.448 46.1855ZM439.598 47.5215V53.4453H436.944V38.5039H441.884C443.653 38.5039 445.048 38.9082 446.067 39.7168C447.087 40.5137 447.596 41.6504 447.596 43.127C447.596 44.4395 446.934 45.459 445.61 46.1855C446.325 46.5488 446.823 47.0586 447.104 47.7148C447.397 48.3594 447.544 49.1621 447.544 50.123C447.544 51.084 447.561 51.7637 447.596 52.1621C447.643 52.5605 447.725 52.8945 447.843 53.1641V53.4453H445.118C444.966 53.0469 444.889 51.9102 444.889 50.0352C444.889 49.1445 444.696 48.5059 444.309 48.1191C443.923 47.7207 443.278 47.5215 442.376 47.5215H439.598ZM439.598 45.166H441.989C442.856 45.166 443.565 44.9785 444.116 44.6035C444.679 44.2285 444.96 43.7363 444.96 43.127C444.96 42.3066 444.749 41.7266 444.327 41.3867C443.917 41.0352 443.167 40.8535 442.077 40.8418H439.598V45.166Z" fill="black"/>
</svg>
