<svg width="268" height="28" viewBox="0 0 268 28" fill="none" xmlns="http://www.w3.org/2000/svg">
<path d="M8.0332 3.30469V7.98047H11.2852V11.707H8.0332V21.1992C8.0332 21.9023 8.16797 22.4062 8.4375 22.7109C8.70703 23.0156 9.22266 23.168 9.98438 23.168C10.5469 23.168 11.0449 23.127 11.4785 23.0449V26.8945C10.4824 27.1992 9.45703 27.3516 8.40234 27.3516C4.83984 27.3516 3.02344 25.5527 2.95312 21.9551V11.707H0.175781V7.98047H2.95312V3.30469H8.0332ZM17.9923 10.0547C19.3399 8.4375 21.0333 7.62891 23.0723 7.62891C27.1973 7.62891 29.2891 10.0254 29.3477 14.8184V27H24.2677V14.959C24.2677 13.8691 24.0333 13.0664 23.5645 12.5508C23.0958 12.0234 22.3165 11.7598 21.2266 11.7598C19.7384 11.7598 18.6602 12.334 17.9923 13.4824V27H12.9122V0H17.9923V10.0547ZM37.4611 27H32.3634V7.98047H37.4611V27ZM32.0646 3.05859C32.0646 2.29688 32.3166 1.66992 32.8205 1.17773C33.3361 0.685547 34.0334 0.439453 34.9123 0.439453C35.7795 0.439453 36.4709 0.685547 36.9865 1.17773C37.5021 1.66992 37.7599 2.29688 37.7599 3.05859C37.7599 3.83203 37.4963 4.46484 36.9689 4.95703C36.4533 5.44922 35.7677 5.69531 34.9123 5.69531C34.0568 5.69531 33.3654 5.44922 32.838 4.95703C32.3224 4.46484 32.0646 3.83203 32.0646 3.05859ZM50.883 21.7441C50.883 21.123 50.5725 20.6367 49.9514 20.2852C49.342 19.9219 48.3577 19.5996 46.9983 19.3184C42.4748 18.3691 40.2131 16.4473 40.2131 13.5527C40.2131 11.8652 40.9104 10.459 42.3049 9.33398C43.7112 8.19727 45.5452 7.62891 47.8069 7.62891C50.2209 7.62891 52.1487 8.19727 53.5901 9.33398C55.0432 10.4707 55.7698 11.9473 55.7698 13.7637H50.6897C50.6897 13.0371 50.4553 12.4395 49.9866 11.9707C49.5178 11.4902 48.7854 11.25 47.7893 11.25C46.9338 11.25 46.2717 11.4434 45.803 11.8301C45.3342 12.2168 45.0998 12.709 45.0998 13.3066C45.0998 13.8691 45.3635 14.3262 45.8909 14.6777C46.4299 15.0176 47.3323 15.3164 48.5979 15.5742C49.8635 15.8203 50.9299 16.1016 51.7971 16.418C54.4807 17.4023 55.8225 19.1074 55.8225 21.5332C55.8225 23.2676 55.0784 24.6738 53.5901 25.752C52.1018 26.8184 50.1799 27.3516 47.8245 27.3516C46.2307 27.3516 44.8127 27.0703 43.5705 26.5078C42.3401 25.9336 41.3733 25.1543 40.6702 24.1699C39.967 23.1738 39.6155 22.1016 39.6155 20.9531H44.4319C44.4787 21.8555 44.8127 22.5469 45.4338 23.0273C46.0549 23.5078 46.887 23.748 47.9299 23.748C48.9026 23.748 49.635 23.5664 50.1272 23.2031C50.6311 22.8281 50.883 22.3418 50.883 21.7441ZM63.3909 27H58.2933V7.98047H63.3909V27ZM57.9945 3.05859C57.9945 2.29688 58.2464 1.66992 58.7503 1.17773C59.2659 0.685547 59.9632 0.439453 60.8421 0.439453C61.7093 0.439453 62.4007 0.685547 62.9163 1.17773C63.432 1.66992 63.6898 2.29688 63.6898 3.05859C63.6898 3.83203 63.4261 4.46484 62.8988 4.95703C62.3831 5.44922 61.6976 5.69531 60.8421 5.69531C59.9866 5.69531 59.2952 5.44922 58.7679 4.95703C58.2523 4.46484 57.9945 3.83203 57.9945 3.05859ZM76.8129 21.7441C76.8129 21.123 76.5023 20.6367 75.8812 20.2852C75.2719 19.9219 74.2875 19.5996 72.9281 19.3184C68.4047 18.3691 66.143 16.4473 66.143 13.5527C66.143 11.8652 66.8402 10.459 68.2348 9.33398C69.641 8.19727 71.475 7.62891 73.7367 7.62891C76.1508 7.62891 78.0785 8.19727 79.5199 9.33398C80.973 10.4707 81.6996 11.9473 81.6996 13.7637H76.6195C76.6195 13.0371 76.3852 12.4395 75.9164 11.9707C75.4477 11.4902 74.7152 11.25 73.7191 11.25C72.8637 11.25 72.2016 11.4434 71.7328 11.8301C71.2641 12.2168 71.0297 12.709 71.0297 13.3066C71.0297 13.8691 71.2934 14.3262 71.8207 14.6777C72.3598 15.0176 73.2621 15.3164 74.5277 15.5742C75.7934 15.8203 76.8598 16.1016 77.727 16.418C80.4105 17.4023 81.7523 19.1074 81.7523 21.5332C81.7523 23.2676 81.0082 24.6738 79.5199 25.752C78.0316 26.8184 76.1098 27.3516 73.7543 27.3516C72.1605 27.3516 70.7426 27.0703 69.5004 26.5078C68.2699 25.9336 67.3031 25.1543 66.6 24.1699C65.8969 23.1738 65.5453 22.1016 65.5453 20.9531H70.3617C70.4086 21.8555 70.7426 22.5469 71.3637 23.0273C71.9848 23.5078 72.8168 23.748 73.8598 23.748C74.8324 23.748 75.5648 23.5664 76.057 23.2031C76.5609 22.8281 76.8129 22.3418 76.8129 21.7441ZM88.6352 7.98047L88.7934 10.1777C90.1528 8.47852 91.9751 7.62891 94.2602 7.62891C96.2759 7.62891 97.7759 8.2207 98.7602 9.4043C99.7446 10.5879 100.249 12.3574 100.272 14.7129V27H95.1919V14.8359C95.1919 13.7578 94.9575 12.9785 94.4887 12.498C94.02 12.0059 93.2407 11.7598 92.1509 11.7598C90.7212 11.7598 89.6489 12.3691 88.9341 13.5879V27H83.854V7.98047H88.6352ZM111.813 27.3516C109.024 27.3516 106.751 26.4961 104.993 24.7852C103.247 23.0742 102.374 20.7949 102.374 17.9473V17.4551C102.374 15.5449 102.743 13.8398 103.481 12.3398C104.219 10.8281 105.262 9.66797 106.61 8.85938C107.969 8.03906 109.516 7.62891 111.251 7.62891C113.852 7.62891 115.897 8.44922 117.385 10.0898C118.885 11.7305 119.635 14.0566 119.635 17.0684V19.1426H107.524C107.688 20.3848 108.18 21.3809 109.001 22.1309C109.833 22.8809 110.881 23.2559 112.147 23.2559C114.104 23.2559 115.633 22.5469 116.735 21.1289L119.231 23.9238C118.469 25.002 117.438 25.8457 116.137 26.4551C114.836 27.0527 113.395 27.3516 111.813 27.3516ZM111.233 11.7422C110.225 11.7422 109.405 12.082 108.772 12.7617C108.151 13.4414 107.753 14.4141 107.577 15.6797H114.643V15.2754C114.62 14.1504 114.315 13.2832 113.729 12.6738C113.143 12.0527 112.311 11.7422 111.233 11.7422ZM128.329 20.7949L131.862 7.98047H137.171L130.755 27H125.903L119.487 7.98047H124.796L128.329 20.7949ZM146.848 27.3516C144.059 27.3516 141.786 26.4961 140.028 24.7852C138.282 23.0742 137.409 20.7949 137.409 17.9473V17.4551C137.409 15.5449 137.778 13.8398 138.516 12.3398C139.255 10.8281 140.298 9.66797 141.645 8.85938C143.005 8.03906 144.551 7.62891 146.286 7.62891C148.887 7.62891 150.932 8.44922 152.421 10.0898C153.921 11.7305 154.671 14.0566 154.671 17.0684V19.1426H142.559C142.723 20.3848 143.216 21.3809 144.036 22.1309C144.868 22.8809 145.917 23.2559 147.182 23.2559C149.139 23.2559 150.669 22.5469 151.77 21.1289L154.266 23.9238C153.505 25.002 152.473 25.8457 151.173 26.4551C149.872 27.0527 148.43 27.3516 146.848 27.3516ZM146.268 11.7422C145.26 11.7422 144.44 12.082 143.807 12.7617C143.186 13.4414 142.788 14.4141 142.612 15.6797H149.678V15.2754C149.655 14.1504 149.35 13.2832 148.764 12.6738C148.178 12.0527 147.346 11.7422 146.268 11.7422ZM167.179 12.7441C166.487 12.6504 165.878 12.6035 165.35 12.6035C163.429 12.6035 162.169 13.2539 161.571 14.5547V27H156.491V7.98047H161.29L161.43 10.248C162.45 8.50195 163.862 7.62891 165.667 7.62891C166.229 7.62891 166.757 7.70508 167.249 7.85742L167.179 12.7441ZM176.118 23.2559C177.056 23.2559 177.817 22.998 178.403 22.4824C178.989 21.9668 179.294 21.2812 179.317 20.4258H184.081C184.069 21.7148 183.718 22.8984 183.026 23.9766C182.335 25.043 181.386 25.875 180.179 26.4727C178.983 27.0586 177.659 27.3516 176.206 27.3516C173.487 27.3516 171.343 26.4902 169.772 24.7676C168.202 23.0332 167.417 20.6426 167.417 17.5957V17.2617C167.417 14.332 168.196 11.9941 169.755 10.248C171.313 8.50195 173.452 7.62891 176.171 7.62891C178.55 7.62891 180.454 8.30859 181.884 9.66797C183.325 11.0156 184.057 12.8145 184.081 15.0645H179.317C179.294 14.0801 178.989 13.2832 178.403 12.6738C177.817 12.0527 177.044 11.7422 176.083 11.7422C174.899 11.7422 174.003 12.1758 173.393 13.043C172.796 13.8984 172.497 15.293 172.497 17.2266V17.7539C172.497 19.7109 172.796 21.1172 173.393 21.9727C173.991 22.8281 174.899 23.2559 176.118 23.2559ZM185.11 17.3145C185.11 15.4277 185.474 13.7461 186.2 12.2695C186.927 10.793 187.97 9.65039 189.329 8.8418C190.7 8.0332 192.288 7.62891 194.093 7.62891C196.659 7.62891 198.751 8.41406 200.368 9.98438C201.997 11.5547 202.905 13.6875 203.093 16.3828L203.128 17.6836C203.128 20.6016 202.313 22.9453 200.685 24.7148C199.056 26.4727 196.87 27.3516 194.128 27.3516C191.386 27.3516 189.194 26.4727 187.554 24.7148C185.925 22.957 185.11 20.5664 185.11 17.543V17.3145ZM190.19 17.6836C190.19 19.4883 190.53 20.8711 191.21 21.832C191.89 22.7812 192.862 23.2559 194.128 23.2559C195.358 23.2559 196.319 22.7871 197.011 21.8496C197.702 20.9004 198.048 19.3887 198.048 17.3145C198.048 15.5449 197.702 14.1738 197.011 13.2012C196.319 12.2285 195.347 11.7422 194.093 11.7422C192.851 11.7422 191.89 12.2285 191.21 13.2012C190.53 14.1621 190.19 15.6562 190.19 17.6836ZM204.386 17.3496C204.386 14.3848 205.048 12.0234 206.372 10.2656C207.708 8.50781 209.53 7.62891 211.839 7.62891C213.69 7.62891 215.22 8.32031 216.427 9.70312V0H221.524V27H216.937L216.69 24.9785C215.425 26.5605 213.796 27.3516 211.804 27.3516C209.565 27.3516 207.767 26.4727 206.407 24.7148C205.06 22.9453 204.386 20.4902 204.386 17.3496ZM209.466 17.7188C209.466 19.5 209.776 20.8652 210.398 21.8145C211.019 22.7637 211.921 23.2383 213.105 23.2383C214.675 23.2383 215.782 22.5762 216.427 21.252V13.7461C215.794 12.4219 214.698 11.7598 213.14 11.7598C210.69 11.7598 209.466 13.7461 209.466 17.7188ZM233.136 27.3516C230.347 27.3516 228.073 26.4961 226.316 24.7852C224.569 23.0742 223.696 20.7949 223.696 17.9473V17.4551C223.696 15.5449 224.066 13.8398 224.804 12.3398C225.542 10.8281 226.585 9.66797 227.933 8.85938C229.292 8.03906 230.839 7.62891 232.573 7.62891C235.175 7.62891 237.22 8.44922 238.708 10.0898C240.208 11.7305 240.958 14.0566 240.958 17.0684V19.1426H228.847C229.011 20.3848 229.503 21.3809 230.323 22.1309C231.155 22.8809 232.204 23.2559 233.47 23.2559C235.427 23.2559 236.956 22.5469 238.058 21.1289L240.554 23.9238C239.792 25.002 238.761 25.8457 237.46 26.4551C236.159 27.0527 234.718 27.3516 233.136 27.3516ZM232.556 11.7422C231.548 11.7422 230.728 12.082 230.095 12.7617C229.474 13.4414 229.075 14.4141 228.9 15.6797H235.966V15.2754C235.943 14.1504 235.638 13.2832 235.052 12.6738C234.466 12.0527 233.634 11.7422 232.556 11.7422ZM242.339 14.1855C242.339 11.8184 242.884 9.62109 243.974 7.59375C245.075 5.56641 246.593 3.97266 248.527 2.8125C250.472 1.64062 252.57 1.05469 254.82 1.05469C257.07 1.05469 259.161 1.64062 261.095 2.8125C263.04 3.97266 264.558 5.56641 265.648 7.59375C266.749 9.62109 267.3 11.8184 267.3 14.1855C267.3 16.5762 266.743 18.791 265.63 20.8301C264.517 22.8574 262.993 24.4512 261.06 25.6113C259.138 26.7715 257.058 27.3516 254.82 27.3516C252.558 27.3516 250.46 26.7656 248.527 25.5938C246.605 24.4219 245.093 22.8223 243.991 20.7949C242.89 18.7676 242.339 16.5645 242.339 14.1855ZM265.138 14.1855C265.138 12.2402 264.698 10.4355 263.82 8.77148C262.941 7.0957 261.698 5.75977 260.093 4.76367C258.488 3.75586 256.73 3.25195 254.82 3.25195C252.956 3.25195 251.222 3.73242 249.616 4.69336C248.023 5.6543 246.769 6.97852 245.855 8.66602C244.941 10.3535 244.484 12.1934 244.484 14.1855C244.484 16.1777 244.935 18.0176 245.837 19.7051C246.751 21.3926 248.005 22.7285 249.599 23.7129C251.204 24.6855 252.945 25.1719 254.82 25.1719C256.695 25.1719 258.435 24.6738 260.04 23.6777C261.657 22.6816 262.911 21.3398 263.802 19.6523C264.693 17.9648 265.138 16.1426 265.138 14.1855ZM252.288 15.5215V21.4453H249.634V6.50391H254.573C256.343 6.50391 257.738 6.9082 258.757 7.7168C259.777 8.51367 260.286 9.65039 260.286 11.127C260.286 12.4395 259.624 13.459 258.3 14.1855C259.015 14.5488 259.513 15.0586 259.794 15.7148C260.087 16.3594 260.234 17.1621 260.234 18.123C260.234 19.084 260.251 19.7637 260.286 20.1621C260.333 20.5605 260.415 20.8945 260.532 21.1641V21.4453H257.808C257.655 21.0469 257.579 19.9102 257.579 18.0352C257.579 17.1445 257.386 16.5059 256.999 16.1191C256.613 15.7207 255.968 15.5215 255.066 15.5215H252.288ZM252.288 13.166H254.679C255.546 13.166 256.255 12.9785 256.806 12.6035C257.368 12.2285 257.65 11.7363 257.65 11.127C257.65 10.3066 257.439 9.72656 257.017 9.38672C256.607 9.03516 255.857 8.85352 254.767 8.8418H252.288V13.166Z" fill="black"/>
</svg>
